<mxfile host="app.diagrams.net" agent="Mozilla/5.0 (Macintosh; Intel Mac OS X 10_15_7) AppleWebKit/537.36 (KHTML, like Gecko) Chrome/133.0.0.0 Safari/537.36" version="26.0.16" pages="3">
  <diagram name="10.1" id="lkFxprdJkYamxbweEZGj">
    <mxGraphModel dx="1000" dy="565" grid="1" gridSize="10" guides="1" tooltips="1" connect="1" arrows="1" fold="1" page="1" pageScale="1" pageWidth="850" pageHeight="1100" math="0" shadow="0">
      <root>
        <mxCell id="0" />
        <mxCell id="1" parent="0" />
        <mxCell id="yzB2KYVp-gDp9_4tMVdA-3" value="User A" style="sketch=0;aspect=fixed;pointerEvents=1;shadow=0;dashed=0;html=1;strokeColor=none;labelPosition=center;verticalLabelPosition=bottom;verticalAlign=top;align=center;fillColor=#00188D;shape=mxgraph.azure.laptop" vertex="1" parent="1">
          <mxGeometry x="10" y="230" width="50" height="30" as="geometry" />
        </mxCell>
        <mxCell id="yzB2KYVp-gDp9_4tMVdA-5" value="Bank&#39;s servers" style="image;aspect=fixed;perimeter=ellipsePerimeter;html=1;align=center;shadow=0;dashed=0;spacingTop=3;image=img/lib/active_directory/generic_server.svg;" vertex="1" parent="1">
          <mxGeometry x="490" y="50" width="28.000000000000004" height="50" as="geometry" />
        </mxCell>
        <mxCell id="yzB2KYVp-gDp9_4tMVdA-6" value="FinTech application" style="html=1;verticalLabelPosition=bottom;align=center;labelBackgroundColor=#ffffff;verticalAlign=top;strokeWidth=2;strokeColor=#0080F0;shadow=0;dashed=0;shape=mxgraph.ios7.icons.smartphone;" vertex="1" parent="1">
          <mxGeometry x="280" y="230" width="18" height="30" as="geometry" />
        </mxCell>
        <mxCell id="yzB2KYVp-gDp9_4tMVdA-7" value="&lt;div&gt;&lt;br&gt;&lt;/div&gt;&lt;div&gt;&lt;br&gt;&lt;/div&gt;&lt;div&gt;&lt;br&gt;&lt;/div&gt;&lt;div&gt;&lt;br&gt;&lt;/div&gt;&lt;div&gt;&lt;br&gt;&lt;/div&gt;&lt;div&gt;&lt;br&gt;&lt;/div&gt;&lt;div&gt;&lt;br&gt;&lt;/div&gt;&lt;div&gt;Welcome user A!&lt;/div&gt;" style="strokeWidth=1;shadow=0;dashed=0;align=center;html=1;shape=mxgraph.mockup.containers.browserWindow;rSize=0;strokeColor=#666666;strokeColor2=#008cff;strokeColor3=#c4c4c4;mainText=,;recursiveResize=0;" vertex="1" parent="1">
          <mxGeometry x="450" y="141" width="320" height="170" as="geometry" />
        </mxCell>
        <mxCell id="yzB2KYVp-gDp9_4tMVdA-8" value="Page 1" style="strokeWidth=1;shadow=0;dashed=0;align=center;html=1;shape=mxgraph.mockup.containers.anchor;fontSize=17;fontColor=#666666;align=left;whiteSpace=wrap;" vertex="1" parent="yzB2KYVp-gDp9_4tMVdA-7">
          <mxGeometry x="60" y="12" width="110" height="26" as="geometry" />
        </mxCell>
        <mxCell id="yzB2KYVp-gDp9_4tMVdA-9" value="https://bank.com" style="strokeWidth=1;shadow=0;dashed=0;align=center;html=1;shape=mxgraph.mockup.containers.anchor;rSize=0;fontSize=17;fontColor=#666666;align=left;" vertex="1" parent="yzB2KYVp-gDp9_4tMVdA-7">
          <mxGeometry x="130" y="60" width="250" height="26" as="geometry" />
        </mxCell>
        <mxCell id="yzB2KYVp-gDp9_4tMVdA-10" style="edgeStyle=orthogonalEdgeStyle;rounded=1;orthogonalLoop=1;jettySize=auto;html=1;entryX=0.484;entryY=-0.015;entryDx=0;entryDy=0;entryPerimeter=0;curved=0;" edge="1" parent="1" source="yzB2KYVp-gDp9_4tMVdA-5" target="yzB2KYVp-gDp9_4tMVdA-7">
          <mxGeometry relative="1" as="geometry">
            <Array as="points">
              <mxPoint x="605" y="75" />
            </Array>
          </mxGeometry>
        </mxCell>
        <mxCell id="yzB2KYVp-gDp9_4tMVdA-11" style="edgeStyle=orthogonalEdgeStyle;rounded=1;orthogonalLoop=1;jettySize=auto;html=1;entryX=-0.138;entryY=0.484;entryDx=0;entryDy=0;entryPerimeter=0;curved=0;" edge="1" parent="1" source="yzB2KYVp-gDp9_4tMVdA-3" target="yzB2KYVp-gDp9_4tMVdA-6">
          <mxGeometry relative="1" as="geometry" />
        </mxCell>
        <mxCell id="yzB2KYVp-gDp9_4tMVdA-12" value="Bank account credentials" style="text;html=1;align=center;verticalAlign=middle;whiteSpace=wrap;rounded=0;strokeColor=default;dashed=1;" vertex="1" parent="1">
          <mxGeometry x="70" y="210" width="170" height="30" as="geometry" />
        </mxCell>
        <mxCell id="yzB2KYVp-gDp9_4tMVdA-14" value="&lt;div&gt;&lt;br&gt;&lt;/div&gt;&lt;div&gt;&lt;br&gt;&lt;/div&gt;&lt;div&gt;&lt;br&gt;&lt;/div&gt;&lt;div&gt;&lt;br&gt;&lt;/div&gt;&lt;div&gt;&lt;br&gt;&lt;/div&gt;&lt;div&gt;&lt;br&gt;&lt;/div&gt;&lt;div&gt;FinTech application&#39;s database&lt;/div&gt;" style="shape=cylinder3;whiteSpace=wrap;html=1;boundedLbl=1;backgroundOutline=1;size=15;" vertex="1" parent="1">
          <mxGeometry x="330" y="90" width="40" height="60" as="geometry" />
        </mxCell>
        <mxCell id="yzB2KYVp-gDp9_4tMVdA-15" style="edgeStyle=orthogonalEdgeStyle;rounded=1;orthogonalLoop=1;jettySize=auto;html=1;entryX=0;entryY=0;entryDx=0;entryDy=37.5;entryPerimeter=0;curved=0;" edge="1" parent="1" source="yzB2KYVp-gDp9_4tMVdA-12" target="yzB2KYVp-gDp9_4tMVdA-14">
          <mxGeometry relative="1" as="geometry">
            <Array as="points">
              <mxPoint x="260" y="225" />
              <mxPoint x="260" y="127" />
            </Array>
          </mxGeometry>
        </mxCell>
        <mxCell id="yzB2KYVp-gDp9_4tMVdA-16" style="edgeStyle=orthogonalEdgeStyle;rounded=1;orthogonalLoop=1;jettySize=auto;html=1;entryX=0.003;entryY=0.609;entryDx=0;entryDy=0;entryPerimeter=0;curved=0;" edge="1" parent="1" source="yzB2KYVp-gDp9_4tMVdA-6" target="yzB2KYVp-gDp9_4tMVdA-7">
          <mxGeometry relative="1" as="geometry" />
        </mxCell>
      </root>
    </mxGraphModel>
  </diagram>
  <diagram id="6s5NypfgmZ0frs7279ig" name="10.2">
    <mxGraphModel grid="1" page="1" gridSize="10" guides="1" tooltips="1" connect="1" arrows="1" fold="1" pageScale="1" pageWidth="850" pageHeight="1100" math="0" shadow="0">
      <root>
        <mxCell id="0" />
        <mxCell id="1" parent="0" />
        <mxCell id="UxiMIKTZ3GnqCShfKizk-23" value="GET /payments/1234&lt;div&gt;Authorization: Bearer &amp;lt;legitimate_&lt;span style=&quot;background-color: transparent; color: light-dark(rgb(0, 0, 0), rgb(255, 255, 255));&quot;&gt;user_token&amp;gt;&lt;/span&gt;&lt;/div&gt;" style="text;html=1;align=center;verticalAlign=middle;whiteSpace=wrap;rounded=0;dashed=1;strokeColor=#d6b656;fillColor=#fff2cc;" vertex="1" parent="1">
          <mxGeometry x="230" y="275" width="280" height="54" as="geometry" />
        </mxCell>
        <mxCell id="UxiMIKTZ3GnqCShfKizk-4" style="edgeStyle=orthogonalEdgeStyle;rounded=1;orthogonalLoop=1;jettySize=auto;html=1;entryX=0;entryY=0.5;entryDx=0;entryDy=0;curved=0;" edge="1" parent="1" source="UxiMIKTZ3GnqCShfKizk-1" target="UxiMIKTZ3GnqCShfKizk-3">
          <mxGeometry relative="1" as="geometry">
            <Array as="points">
              <mxPoint x="210" y="185" />
              <mxPoint x="210" y="250" />
            </Array>
          </mxGeometry>
        </mxCell>
        <mxCell id="UxiMIKTZ3GnqCShfKizk-1" value="Legitimate user" style="sketch=0;aspect=fixed;pointerEvents=1;shadow=0;dashed=0;html=1;strokeColor=none;labelPosition=center;verticalLabelPosition=bottom;verticalAlign=top;align=center;fillColor=#00188D;shape=mxgraph.azure.laptop" vertex="1" parent="1">
          <mxGeometry x="110" y="170" width="50" height="30" as="geometry" />
        </mxCell>
        <mxCell id="UxiMIKTZ3GnqCShfKizk-7" style="edgeStyle=orthogonalEdgeStyle;rounded=1;orthogonalLoop=1;jettySize=auto;html=1;entryX=0.5;entryY=1;entryDx=0;entryDy=0;curved=0;" edge="1" parent="1" source="UxiMIKTZ3GnqCShfKizk-10" target="UxiMIKTZ3GnqCShfKizk-3">
          <mxGeometry relative="1" as="geometry" />
        </mxCell>
        <mxCell id="UxiMIKTZ3GnqCShfKizk-12" style="edgeStyle=orthogonalEdgeStyle;rounded=1;orthogonalLoop=1;jettySize=auto;html=1;entryX=0;entryY=0.5;entryDx=0;entryDy=0;curved=0;" edge="1" parent="1" source="UxiMIKTZ3GnqCShfKizk-2" target="UxiMIKTZ3GnqCShfKizk-10">
          <mxGeometry relative="1" as="geometry" />
        </mxCell>
        <mxCell id="UxiMIKTZ3GnqCShfKizk-2" value="Threat actor" style="shape=image;html=1;verticalAlign=top;verticalLabelPosition=bottom;labelBackgroundColor=#ffffff;imageAspect=0;aspect=fixed;image=https://cdn0.iconfinder.com/data/icons/kameleon-free-pack/110/Hacker-128.png" vertex="1" parent="1">
          <mxGeometry x="100.5" y="300" width="69" height="69" as="geometry" />
        </mxCell>
        <mxCell id="UxiMIKTZ3GnqCShfKizk-3" value="Bank API" style="rounded=0;whiteSpace=wrap;html=1;fillColor=#dae8fc;strokeColor=#6c8ebf;" vertex="1" parent="1">
          <mxGeometry x="540" y="220" width="120" height="60" as="geometry" />
        </mxCell>
        <mxCell id="UxiMIKTZ3GnqCShfKizk-5" value="GET /payments/1234&lt;div&gt;Authorization: Bearer &amp;lt;legitimate_&lt;span style=&quot;background-color: transparent; color: light-dark(rgb(0, 0, 0), rgb(255, 255, 255));&quot;&gt;user_token&amp;gt;&lt;/span&gt;&lt;/div&gt;" style="text;html=1;align=center;verticalAlign=middle;whiteSpace=wrap;rounded=0;dashed=1;strokeColor=#d6b656;fillColor=#fff2cc;" vertex="1" parent="1">
          <mxGeometry x="230" y="190" width="280" height="54" as="geometry" />
        </mxCell>
        <mxCell id="UxiMIKTZ3GnqCShfKizk-6" value="" style="shape=image;html=1;verticalAlign=top;verticalLabelPosition=bottom;labelBackgroundColor=#ffffff;imageAspect=0;aspect=fixed;image=https://cdn4.iconfinder.com/data/icons/web-ui-color/128/Checkmark-128.png" vertex="1" parent="1">
          <mxGeometry x="320" y="240" width="20" height="20" as="geometry" />
        </mxCell>
        <mxCell id="UxiMIKTZ3GnqCShfKizk-10" value="" style="shape=image;html=1;verticalAlign=top;verticalLabelPosition=bottom;labelBackgroundColor=#ffffff;imageAspect=0;aspect=fixed;image=https://cdn1.iconfinder.com/data/icons/CrystalClear/16x16/actions/gg_ignored.png" vertex="1" parent="1">
          <mxGeometry x="326.5" y="325" width="19" height="19" as="geometry" />
        </mxCell>
      </root>
    </mxGraphModel>
  </diagram>
  <diagram id="aGpDziVCVIYju6bnXfgR" name="10.3">
    <mxGraphModel dx="1000" dy="565" grid="1" gridSize="10" guides="1" tooltips="1" connect="1" arrows="1" fold="1" page="1" pageScale="1" pageWidth="850" pageHeight="1100" math="0" shadow="0">
      <root>
        <mxCell id="0" />
        <mxCell id="1" parent="0" />
        <mxCell id="KH2AH1txwN3TRQSQFPnI-1" value="OIDC / authorization server" style="rounded=0;whiteSpace=wrap;html=1;" vertex="1" parent="1">
          <mxGeometry x="550" y="90" width="120" height="60" as="geometry" />
        </mxCell>
        <mxCell id="KH2AH1txwN3TRQSQFPnI-2" value="FinTech application&lt;div&gt;(client)&lt;/div&gt;" style="rounded=0;whiteSpace=wrap;html=1;" vertex="1" parent="1">
          <mxGeometry x="270" y="190" width="120" height="60" as="geometry" />
        </mxCell>
        <mxCell id="KH2AH1txwN3TRQSQFPnI-3" value="User / user agent" style="sketch=0;aspect=fixed;pointerEvents=1;shadow=0;dashed=0;html=1;strokeColor=none;labelPosition=center;verticalLabelPosition=bottom;verticalAlign=top;align=center;fillColor=#00188D;shape=mxgraph.azure.laptop" vertex="1" parent="1">
          <mxGeometry x="50" y="105" width="50" height="30" as="geometry" />
        </mxCell>
        <mxCell id="KH2AH1txwN3TRQSQFPnI-4" value="" style="shape=image;html=1;verticalAlign=top;verticalLabelPosition=bottom;labelBackgroundColor=#ffffff;imageAspect=0;aspect=fixed;image=https://cdn0.iconfinder.com/data/icons/kameleon-free-pack/110/Hacker-128.png" vertex="1" parent="1">
          <mxGeometry x="45" y="380" width="60" height="60" as="geometry" />
        </mxCell>
        <mxCell id="KH2AH1txwN3TRQSQFPnI-6" value="" style="rounded=0;whiteSpace=wrap;html=1;" vertex="1" parent="1">
          <mxGeometry x="450" y="800" width="220" height="20" as="geometry" />
        </mxCell>
        <mxCell id="KH2AH1txwN3TRQSQFPnI-8" value="" style="rounded=0;whiteSpace=wrap;html=1;" vertex="1" parent="1">
          <mxGeometry x="450" y="800" width="220" height="140" as="geometry" />
        </mxCell>
        <mxCell id="KH2AH1txwN3TRQSQFPnI-9" value="&lt;div&gt;{&lt;/div&gt;&lt;div&gt;&amp;nbsp; &quot;sub&quot;: &quot;b896ff3a&quot;,&lt;/div&gt;&lt;div&gt;&amp;nbsp; ...&lt;/div&gt;&lt;div&gt;}&lt;/div&gt;" style="text;html=1;strokeColor=none;fillColor=none;align=left;verticalAlign=middle;whiteSpace=wrap;rounded=0;fontColor=#7EA6E0;" vertex="1" parent="1">
          <mxGeometry x="457.5" y="864" width="112.5" height="70" as="geometry" />
        </mxCell>
        <mxCell id="KH2AH1txwN3TRQSQFPnI-10" value="Payload (claims)" style="text;html=1;strokeColor=none;fillColor=#7EA6E0;align=center;verticalAlign=middle;whiteSpace=wrap;rounded=0;" vertex="1" parent="1">
          <mxGeometry x="450" y="830" width="220" height="30" as="geometry" />
        </mxCell>
        <mxCell id="KH2AH1txwN3TRQSQFPnI-11" value="Signature" style="text;html=1;strokeColor=default;fillColor=#B5739D;align=center;verticalAlign=middle;whiteSpace=wrap;rounded=0;" vertex="1" parent="1">
          <mxGeometry x="450" y="940" width="220" height="30" as="geometry" />
        </mxCell>
        <mxCell id="KH2AH1txwN3TRQSQFPnI-12" value="Header" style="text;html=1;strokeColor=#36393d;fillColor=#ffcc99;align=center;verticalAlign=middle;whiteSpace=wrap;rounded=0;" vertex="1" parent="1">
          <mxGeometry x="450" y="800" width="220" height="30" as="geometry" />
        </mxCell>
        <mxCell id="KH2AH1txwN3TRQSQFPnI-35" style="edgeStyle=orthogonalEdgeStyle;rounded=0;orthogonalLoop=1;jettySize=auto;html=1;entryX=0;entryY=0.75;entryDx=0;entryDy=0;" edge="1" parent="1" source="KH2AH1txwN3TRQSQFPnI-18" target="KH2AH1txwN3TRQSQFPnI-27">
          <mxGeometry relative="1" as="geometry">
            <Array as="points">
              <mxPoint x="160" y="396" />
              <mxPoint x="160" y="396" />
            </Array>
          </mxGeometry>
        </mxCell>
        <mxCell id="KH2AH1txwN3TRQSQFPnI-18" value="" style="rounded=0;whiteSpace=wrap;html=1;" vertex="1" parent="1">
          <mxGeometry x="140" y="80" width="10" height="360" as="geometry" />
        </mxCell>
        <mxCell id="KH2AH1txwN3TRQSQFPnI-22" style="edgeStyle=orthogonalEdgeStyle;rounded=0;orthogonalLoop=1;jettySize=auto;html=1;entryX=1;entryY=0.25;entryDx=0;entryDy=0;" edge="1" parent="1" source="KH2AH1txwN3TRQSQFPnI-19" target="KH2AH1txwN3TRQSQFPnI-18">
          <mxGeometry relative="1" as="geometry">
            <Array as="points">
              <mxPoint x="310" y="170" />
              <mxPoint x="310" y="170" />
            </Array>
          </mxGeometry>
        </mxCell>
        <mxCell id="KH2AH1txwN3TRQSQFPnI-19" value="" style="rounded=0;whiteSpace=wrap;html=1;" vertex="1" parent="1">
          <mxGeometry x="510" y="80" width="10" height="360" as="geometry" />
        </mxCell>
        <mxCell id="KH2AH1txwN3TRQSQFPnI-21" style="edgeStyle=orthogonalEdgeStyle;rounded=0;orthogonalLoop=1;jettySize=auto;html=1;entryX=-0.267;entryY=0.104;entryDx=0;entryDy=0;entryPerimeter=0;" edge="1" parent="1" source="KH2AH1txwN3TRQSQFPnI-18" target="KH2AH1txwN3TRQSQFPnI-19">
          <mxGeometry relative="1" as="geometry">
            <Array as="points">
              <mxPoint x="200" y="117" />
              <mxPoint x="200" y="117" />
            </Array>
          </mxGeometry>
        </mxCell>
        <mxCell id="KH2AH1txwN3TRQSQFPnI-27" value="" style="rounded=0;whiteSpace=wrap;html=1;" vertex="1" parent="1">
          <mxGeometry x="325" y="265" width="10" height="175" as="geometry" />
        </mxCell>
        <mxCell id="KH2AH1txwN3TRQSQFPnI-29" style="edgeStyle=orthogonalEdgeStyle;rounded=0;orthogonalLoop=1;jettySize=auto;html=1;entryX=0.162;entryY=0.156;entryDx=0;entryDy=0;entryPerimeter=0;" edge="1" parent="1">
          <mxGeometry relative="1" as="geometry">
            <mxPoint x="150" y="333" as="sourcePoint" />
            <mxPoint x="326.62" y="333.29999999999995" as="targetPoint" />
            <Array as="points">
              <mxPoint x="180" y="333" />
              <mxPoint x="180" y="333" />
            </Array>
          </mxGeometry>
        </mxCell>
        <mxCell id="KH2AH1txwN3TRQSQFPnI-30" style="edgeStyle=orthogonalEdgeStyle;rounded=0;orthogonalLoop=1;jettySize=auto;html=1;entryX=-0.123;entryY=0.591;entryDx=0;entryDy=0;entryPerimeter=0;" edge="1" parent="1">
          <mxGeometry relative="1" as="geometry">
            <mxPoint x="335" y="332.4761904761905" as="sourcePoint" />
            <mxPoint x="508.7700000000001" y="331.76" as="targetPoint" />
            <Array as="points">
              <mxPoint x="385" y="333" />
            </Array>
          </mxGeometry>
        </mxCell>
        <mxCell id="KH2AH1txwN3TRQSQFPnI-33" style="edgeStyle=orthogonalEdgeStyle;rounded=0;orthogonalLoop=1;jettySize=auto;html=1;entryX=1.22;entryY=0.758;entryDx=0;entryDy=0;entryPerimeter=0;" edge="1" parent="1">
          <mxGeometry relative="1" as="geometry">
            <mxPoint x="325" y="374.5333333333333" as="sourcePoint" />
            <mxPoint x="152.19999999999993" y="374.88" as="targetPoint" />
          </mxGeometry>
        </mxCell>
        <mxCell id="KH2AH1txwN3TRQSQFPnI-36" style="edgeStyle=orthogonalEdgeStyle;rounded=0;orthogonalLoop=1;jettySize=auto;html=1;entryX=-0.133;entryY=0.919;entryDx=0;entryDy=0;entryPerimeter=0;" edge="1" parent="1" source="KH2AH1txwN3TRQSQFPnI-4" target="KH2AH1txwN3TRQSQFPnI-27">
          <mxGeometry relative="1" as="geometry" />
        </mxCell>
        <mxCell id="KH2AH1txwN3TRQSQFPnI-38" value="User logs in with their identity provider" style="text;html=1;align=center;verticalAlign=middle;whiteSpace=wrap;rounded=0;strokeColor=default;dashed=1;" vertex="1" parent="1">
          <mxGeometry x="205" y="80" width="250" height="30" as="geometry" />
        </mxCell>
        <mxCell id="KH2AH1txwN3TRQSQFPnI-39" value="Identity provider issues the authorization code" style="text;html=1;align=center;verticalAlign=middle;whiteSpace=wrap;rounded=0;strokeColor=default;dashed=1;" vertex="1" parent="1">
          <mxGeometry x="192.5" y="135" width="275" height="30" as="geometry" />
        </mxCell>
        <mxCell id="KH2AH1txwN3TRQSQFPnI-40" value="User sends the code to the FinTech application to exchange it for an access and ID token" style="text;html=1;align=center;verticalAlign=middle;whiteSpace=wrap;rounded=0;strokeColor=default;dashed=1;" vertex="1" parent="1">
          <mxGeometry x="161" y="260" width="149" height="68" as="geometry" />
        </mxCell>
        <mxCell id="KH2AH1txwN3TRQSQFPnI-41" value="The FinTech application exchanges the authorization code for an access and ID token" style="text;html=1;align=center;verticalAlign=middle;whiteSpace=wrap;rounded=0;strokeColor=default;dashed=1;" vertex="1" parent="1">
          <mxGeometry x="345" y="261" width="149" height="68" as="geometry" />
        </mxCell>
        <mxCell id="KH2AH1txwN3TRQSQFPnI-42" style="edgeStyle=orthogonalEdgeStyle;rounded=0;orthogonalLoop=1;jettySize=auto;html=1;entryX=0.847;entryY=0.61;entryDx=0;entryDy=0;entryPerimeter=0;" edge="1" parent="1" source="KH2AH1txwN3TRQSQFPnI-19" target="KH2AH1txwN3TRQSQFPnI-27">
          <mxGeometry relative="1" as="geometry">
            <Array as="points">
              <mxPoint x="470" y="372" />
              <mxPoint x="470" y="372" />
            </Array>
          </mxGeometry>
        </mxCell>
        <mxCell id="KH2AH1txwN3TRQSQFPnI-43" value="The OIDC server issues the access and ID token" style="text;html=1;align=center;verticalAlign=middle;whiteSpace=wrap;rounded=0;strokeColor=default;dashed=1;" vertex="1" parent="1">
          <mxGeometry x="340" y="340" width="149" height="30" as="geometry" />
        </mxCell>
        <mxCell id="KH2AH1txwN3TRQSQFPnI-44" value="Resource server" style="rounded=0;whiteSpace=wrap;html=1;" vertex="1" parent="1">
          <mxGeometry x="550" y="320" width="120" height="60" as="geometry" />
        </mxCell>
      </root>
    </mxGraphModel>
  </diagram>
</mxfile>
